<svg version="1.1"  xmlns="http://www.w3.org/2000/svg">

<symbol id="expandClose" viewBox="0 0 24 21">
<path d="M3.03297 13.9995L3.08248 19.9993L1.08255 20.0158L1.03304 14.016L3.03297 13.9995Z"/>
<path d="M2.96696 5.9998L2.91745 0L0.917523 0.0165024L0.96703 6.0163L2.96696 5.9998Z"/>
<path d="M3.67205 11.1053C3.88909 10.7746 4.0032 10.387 3.99993 9.99141C3.99077 8.88145 3.09346 7.99882 1.9835 8.00798C1.58795 8.01124 1.20225 8.13173 0.875177 8.3542C0.548103 8.57667 0.294344 8.89113 0.145989 9.25782C-0.00236528 9.6245 -0.0386525 10.027 0.0417165 10.4143C0.122085 10.8016 0.315501 11.1564 0.597504 11.4337C0.879508 11.7111 1.23743 11.8987 1.62602 11.9726C2.0146 12.0466 2.4164 12.0037 2.78059 11.8493C3.14478 11.6949 3.45501 11.436 3.67205 11.1053Z"/>
<path fill-rule="evenodd" clip-rule="evenodd" d="M20.9333 1.85141C22.0433 1.84225 22.9406 2.72488 22.9498 3.83484L23.0488 15.8344C23.058 16.9444 22.1753 17.8417 21.0654 17.8509L9.06577 17.9499C8.53536 17.9543 8.02493 17.7477 7.64677 17.3758C7.26862 17.0038 7.05371 16.4969 7.04934 15.9665L7.01633 11.9666L4.9999 9.98316L6.98333 7.96672L6.95032 3.96686C6.94595 3.43644 7.15246 2.92601 7.52442 2.54786C7.89639 2.16971 8.40334 1.9548 8.93375 1.95042L20.9333 1.85141ZM12.5842 9.16836C12.216 9.16836 11.9175 9.46684 11.9175 9.83503C11.9175 10.2032 12.216 10.5017 12.5842 10.5017H17.9175C18.2857 10.5017 18.5842 10.2032 18.5842 9.83503C18.5842 9.46684 18.2857 9.16836 17.9175 9.16836H12.5842Z" />
</symbol>

<symbol id="expandOpen" viewBox="0 0 24 21">
<path d="M3.11543 13.9995L3.16494 19.9993L1.16501 20.0158L1.1155 14.016L3.11543 13.9995Z"/>
<path d="M3.04942 5.9998L2.99991 0L0.999981 0.0165024L1.04949 6.0163L3.04942 5.9998Z"/>
<path d="M3.75451 11.1053C3.97155 10.7746 4.08566 10.387 4.08239 9.99141C4.07323 8.88145 3.17592 7.99882 2.06596 8.00798C1.67041 8.01124 1.28471 8.13173 0.957635 8.3542C0.630561 8.57667 0.376803 8.89113 0.228448 9.25782C0.0800932 9.6245 0.043806 10.027 0.124175 10.4143C0.204544 10.8016 0.397959 11.1564 0.679963 11.4337C0.961966 11.7111 1.31989 11.8987 1.70848 11.9726C2.09706 12.0466 2.49886 12.0037 2.86305 11.8493C3.22724 11.6949 3.53747 11.436 3.75451 11.1053Z"/>
<path fill-rule="evenodd" clip-rule="evenodd" d="M21.0158 1.85141C22.1258 1.84225 23.0231 2.72488 23.0322 3.83484L23.1313 15.8344C23.1404 16.9444 22.2578 17.8417 21.1478 17.8509L9.14823 17.9499C8.61782 17.9543 8.10739 17.7477 7.72923 17.3758C7.35108 17.0038 7.13617 16.4969 7.1318 15.9665L7.09879 11.9666L5.08236 9.98316L7.06579 7.96672L7.03278 3.96686C7.02841 3.43644 7.23491 2.92601 7.60688 2.54786C7.97885 2.16971 8.4858 1.9548 9.01621 1.95042L21.0158 1.85141ZM15.3333 13.1684C14.9651 13.1684 14.6667 12.8699 14.6667 12.5017V10.5017H12.6667C12.2985 10.5017 12 10.2032 12 9.83504C12 9.46685 12.2985 9.16837 12.6667 9.16837H14.6667V7.16837C14.6667 6.80018 14.9651 6.50171 15.3333 6.50171C15.7015 6.50171 16 6.80018 16 7.16837V9.16837L18 9.16837C18.3682 9.16837 18.6667 9.46685 18.6667 9.83504C18.6667 10.2032 18.3682 10.5017 18 10.5017H16V12.5017C16 12.8699 15.7015 13.1684 15.3333 13.1684Z"/>
</symbol>


<symbol id="excel" viewBox="0 0 24 24">
<path d="M15.25 6.75H6.75V11.75H15.25V6.75Z" fill="#107C41"/>
<path d="M15.25 11.75H6.75V16.75H15.25V11.75Z" fill="#185C37"/>
<path d="M23 6.75H15.25V11.75H23V6.75Z" fill="#21A366"/>
<path d="M23 11.75H15.25V16.75H23V11.75Z" fill="#107C41"/>
<path d="M23 16.75H6.75V20.5C6.75 21.0523 7.19771 21.5 7.75 21.5H22C22.5523 21.5 23 21.0523 23 20.5V16.75Z" fill="#185C37"/>
<path d="M15.25 6.75L15.25 2H7.75C7.19771 2 6.75 2.44772 6.75 3V6.75H15.25Z" fill="#21A366"/>
<path d="M23 6.75V3C23 2.44772 22.5523 2 22 2L15.25 2L15.25 6.75H23Z" fill="#33C481"/>
<path d="M6.75 5.75H12.75C13.3023 5.75 13.75 6.19771 13.75 6.75V17C13.75 17.5523 13.3023 18 12.75 18H6.75V5.75Z" fill="url(#paint0_linear_1129_11030)" fill-opacity="0.7"/>
<path d="M6.75 6.25H12.25C12.8023 6.25 13.25 6.69772 13.25 7.25V16.5C13.25 17.0523 12.8023 17.5 12.25 17.5H6.75V6.25Z" fill="#0E351F" fill-opacity="0.6"/>
<path d="M6.75 7.25H12.25C12.8023 7.25 13.25 7.69772 13.25 8.25V17.5C13.25 18.0523 12.8023 18.5 12.25 18.5H6.75V7.25Z" fill="#0E351F" fill-opacity="0.6"/>
<path d="M2 7.25C2 6.69772 2.44772 6.25 3 6.25H11.75C12.3023 6.25 12.75 6.69772 12.75 7.25V16C12.75 16.5523 12.3023 17 11.75 17H3C2.44772 17 2 16.5523 2 16V7.25Z" fill="#10783F"/>
<path d="M5 14.4978L6.81169 11.6157L5.15224 8.75H6.48485L7.39033 10.585C7.47403 10.7587 7.53463 10.8878 7.56205 10.9739H7.57431C7.63348 10.8344 7.69625 10.7001 7.7619 10.5687L8.73016 8.75297H9.95671L8.25469 11.6024L10 14.5H8.6948L7.64863 12.4884C7.60005 12.4019 7.55878 12.3113 7.52525 12.2175H7.50794C7.47743 12.3088 7.43676 12.3962 7.38672 12.478L6.30952 14.4978H5Z" fill="white"/>
<defs>
<linearGradient id="paint0_linear_1129_11030" x1="12.5" y1="2" x2="12.5" y2="21.5" gradientUnits="userSpaceOnUse">
<stop stop-color="#165331" stop-opacity="0.45"/>
<stop offset="1" stop-color="#114126"/>
</linearGradient>
</defs>  
</symbol> 




<symbol id="pdf" viewBox="0 0 24 21">
<path d="M18.075 1.55399L22.248 5.90399V22.446H6.65924V22.5H22.3012V5.95874L18.075 1.55399Z" fill="#909090"/>
<path d="M18.0232 1.5H6.60599V22.446H22.248V5.90475L18.0225 1.5" fill="#F4F4F4"/>
<path d="M6.49126 2.625H1.69876V7.74525H16.7738V2.625H6.49126Z" fill="#7A7B7C"/>
<path d="M16.854 7.65824H1.79626V2.53424H16.854V7.65824Z" fill="#DD2025"/>
<path d="M6.789 3.40049H5.80875V7.00049H6.57975V5.78624L6.75 5.79599C6.91542 5.79314 7.0793 5.76351 7.23525 5.70824C7.37197 5.66121 7.49775 5.58697 7.605 5.48999C7.71412 5.3976 7.80016 5.281 7.85625 5.14949C7.93147 4.93086 7.95834 4.69851 7.935 4.46849C7.93031 4.30417 7.9015 4.14143 7.8495 3.98549C7.80215 3.87292 7.73189 3.77144 7.64318 3.68751C7.55447 3.60357 7.44926 3.53903 7.33425 3.49799C7.2348 3.46198 7.13206 3.43586 7.0275 3.41999C6.94832 3.40777 6.86836 3.40125 6.78825 3.40049H6.789ZM6.6465 5.12099H6.57975V4.01099H6.7245C6.78838 4.00638 6.85249 4.01619 6.91207 4.03968C6.97166 4.06318 7.0252 4.09976 7.06875 4.14674C7.15899 4.2675 7.20719 4.41449 7.206 4.56524C7.206 4.74974 7.206 4.91699 7.0395 5.03474C6.91955 5.10071 6.78301 5.13041 6.6465 5.12024V5.12099ZM9.39975 3.39074C9.3165 3.39074 9.2355 3.39674 9.1785 3.39899L9 3.40349H8.415V7.00349H9.1035C9.36661 7.0107 9.62858 6.9661 9.8745 6.87224C10.0724 6.79373 10.2477 6.66717 10.3845 6.50399C10.5175 6.33933 10.613 6.14761 10.6642 5.94224C10.7232 5.70964 10.7519 5.47042 10.7497 5.23049C10.7643 4.9471 10.7424 4.66303 10.6845 4.38524C10.6296 4.18076 10.5267 3.99231 10.3845 3.83549C10.2729 3.70886 10.1363 3.60671 9.98325 3.53549C9.85183 3.47467 9.71359 3.42985 9.5715 3.40199C9.51499 3.39265 9.45776 3.38838 9.4005 3.38924L9.39975 3.39074ZM9.264 6.34199H9.189V4.04399H9.19875C9.35337 4.0262 9.50981 4.05409 9.64875 4.12424C9.75049 4.20548 9.8334 4.30784 9.89175 4.42424C9.95471 4.54674 9.99101 4.68119 9.99825 4.81874C10.005 4.98374 9.99825 5.11874 9.99825 5.23049C10.0013 5.35921 9.99302 5.48796 9.9735 5.61524C9.95038 5.74591 9.90765 5.87234 9.84675 5.99024C9.77781 6.09985 9.68468 6.19222 9.5745 6.26024C9.48196 6.32008 9.37239 6.34801 9.2625 6.33974L9.264 6.34199ZM13.0725 3.40349H11.25V7.00349H12.021V5.57549H12.996V4.90649H12.021V4.07249H13.071V3.40349" fill="#464648"/>
<path d="M16.3358 15.1913C16.3358 15.1913 18.7268 14.7578 18.7268 15.5745C18.7268 16.3913 17.2455 16.059 16.3358 15.1913ZM14.568 15.2535C14.1881 15.3374 13.8179 15.4603 13.4633 15.6203L13.7633 14.9453C14.0633 14.2703 14.3745 13.35 14.3745 13.35C14.7325 13.9525 15.149 14.5182 15.618 15.039C15.2643 15.0917 14.9138 15.1639 14.568 15.255V15.2535ZM13.6215 10.3785C13.6215 9.66676 13.8518 9.47251 14.031 9.47251C14.2103 9.47251 14.412 9.55876 14.4188 10.1768C14.3604 10.7982 14.2302 11.4108 14.031 12.0023C13.7581 11.5056 13.6169 10.9474 13.6208 10.3808L13.6215 10.3785ZM10.1348 18.2655C9.40126 17.8268 11.673 16.476 12.0848 16.4325C12.0825 16.4333 10.9028 18.7245 10.1348 18.2655V18.2655ZM19.425 15.6713C19.4175 15.5963 19.35 14.766 17.8725 14.8013C17.2567 14.7913 16.6411 14.8347 16.0328 14.931C15.4435 14.3373 14.936 13.6677 14.5238 12.9398C14.7835 12.1893 14.9406 11.4073 14.991 10.6148C14.9693 9.71476 14.754 9.19876 14.064 9.20626C13.374 9.21376 13.2735 9.81751 13.3643 10.716C13.4532 11.3198 13.6208 11.9093 13.863 12.4695C13.863 12.4695 13.5443 13.4618 13.1228 14.4488C12.7013 15.4358 12.4133 15.9533 12.4133 15.9533C11.6803 16.1919 10.9903 16.5464 10.3695 17.0033C9.75151 17.5785 9.50026 18.0203 9.82576 18.462C10.1063 18.843 11.088 18.9293 11.9655 17.7795C12.4318 17.1857 12.8577 16.5613 13.2405 15.9105C13.2405 15.9105 14.5785 15.5438 14.9948 15.4433C15.411 15.3428 15.9143 15.2633 15.9143 15.2633C15.9143 15.2633 17.136 16.4925 18.3143 16.449C19.4925 16.4055 19.4355 15.7448 19.428 15.6728" fill="#DD2025"/>
<path d="M17.9655 1.55774V5.96249H22.1903L17.9655 1.55774Z" fill="#909090"/>
<path d="M18.0233 1.5V5.90475H22.248L18.0233 1.5Z" fill="#F4F4F4"/>
<path d="M6.73126 3.34275H5.75101V6.94275H6.52501V5.72925L6.69601 5.739C6.86144 5.73615 7.02531 5.70652 7.18126 5.65125C7.31798 5.6042 7.44375 5.52996 7.55101 5.433C7.65931 5.34036 7.74456 5.22379 7.80001 5.0925C7.87523 4.87387 7.9021 4.64152 7.87876 4.4115C7.87407 4.24718 7.84527 4.08444 7.79326 3.9285C7.74591 3.81593 7.67565 3.71445 7.58694 3.63052C7.49823 3.54659 7.39302 3.48204 7.27801 3.441C7.17811 3.40464 7.07485 3.37827 6.96976 3.36225C6.89058 3.35003 6.81062 3.34351 6.73051 3.34275H6.73126ZM6.58876 5.06325H6.52201V3.95325H6.66751C6.73139 3.94864 6.7955 3.95845 6.85508 3.98194C6.91467 4.00544 6.96821 4.04203 7.01176 4.089C7.102 4.20976 7.1502 4.35675 7.14901 4.5075C7.14901 4.692 7.14901 4.85925 6.98251 4.977C6.86256 5.04297 6.72602 5.07267 6.58951 5.0625L6.58876 5.06325ZM9.34201 3.333C9.25876 3.333 9.17776 3.339 9.12076 3.34125L8.94451 3.34575H8.35951V6.94575H9.04801C9.31113 6.95296 9.5731 6.90836 9.81901 6.8145C10.0169 6.73599 10.1922 6.60943 10.329 6.44625C10.462 6.28159 10.5575 6.08988 10.6088 5.8845C10.6677 5.6519 10.6964 5.41268 10.6943 5.17275C10.7088 4.88936 10.6869 4.60529 10.629 4.3275C10.5741 4.12302 10.4713 3.93457 10.329 3.77775C10.2174 3.65112 10.0808 3.54897 9.92776 3.47775C9.79634 3.41693 9.6581 3.37211 9.51601 3.34425C9.4595 3.33491 9.40227 3.33065 9.34501 3.3315L9.34201 3.333ZM9.20851 6.28425H9.13351V3.98625H9.14326C9.29788 3.96846 9.45432 3.99636 9.59326 4.0665C9.695 4.14774 9.77791 4.2501 9.83626 4.3665C9.89922 4.489 9.93552 4.62345 9.94276 4.761C9.94951 4.926 9.94276 5.061 9.94276 5.17275C9.94581 5.30147 9.93753 5.43022 9.91801 5.5575C9.89489 5.68817 9.85216 5.8146 9.79126 5.9325C9.72233 6.04211 9.62919 6.13448 9.51901 6.2025C9.42647 6.26235 9.3169 6.29027 9.20701 6.282L9.20851 6.28425ZM13.0148 3.34575H11.1923V6.94575H11.9633V5.51775H12.9383V4.84875H11.9633V4.01475H13.0133V3.34575" fill="white"/>
</symbol>


<symbol id="ppt" viewBox="0 0 24 21">
<path d="M23 11.8571H13.1429V2C18.5868 2 23 6.41319 23 11.8571Z" fill="#FF8F6B"/>
<path d="M13.1429 21.7143L13.1429 11.8571H23C23 17.3011 18.5868 21.7143 13.1429 21.7143Z" fill="#D35230"/>
<path d="M13.1429 2V11.8571L3.28573 11.8571C3.28573 6.41319 7.6989 2 13.1429 2Z" fill="#ED6C47"/>
<path d="M3.28573 11.8571L13.1429 11.8571L13.1429 21.7143C7.69891 21.7143 3.28573 17.3011 3.28573 11.8571Z" fill="#D35230"/>
<path d="M5.95678 18.7123C4.30446 16.988 3.28571 14.6266 3.28571 12.022C3.28571 9.86972 3.9813 7.88357 5.15516 6.28571H12.4493C13.069 6.28571 13.5714 6.74942 13.5714 7.32143V17.6786C13.5714 18.2506 13.069 18.7143 12.4493 18.7143H6.07142C6.03284 18.7143 5.99463 18.7136 5.95678 18.7123Z" fill="url(#paint0_linear_1127_10918)"/>
<path fill-rule="evenodd" clip-rule="evenodd" d="M5.49132 17.8571C3.59677 16.1822 2.42857 13.8879 2.42857 11.3571C2.42857 9.66581 2.95033 8.08009 3.86195 6.71429H12.1428C12.6951 6.71429 13.1428 7.162 13.1428 7.71428V16.8571C13.1428 17.4094 12.6951 17.8571 12.1428 17.8571H5.49132Z" fill="#622616" fill-opacity="0.6"/>
<path d="M2 7.71428C2 7.162 2.44772 6.71429 3 6.71429H11.8429C12.3951 6.71429 12.8429 7.162 12.8429 7.71429V16.5571C12.8429 17.1094 12.3951 17.5571 11.8429 17.5571H3C2.44771 17.5571 2 17.1094 2 16.5571V7.71428Z" fill="#C74522"/>
<path d="M7.28737 9.67691C7.86189 9.63826 8.43147 9.80489 8.89458 10.1471C9.085 10.3166 9.23429 10.5273 9.33113 10.7631C9.42797 10.9989 9.46981 11.2537 9.45348 11.5081C9.45994 11.8665 9.3643 12.2193 9.17772 12.5254C8.98896 12.8265 8.71705 13.0666 8.39482 13.2166C8.02665 13.3873 7.62437 13.4718 7.21862 13.4635H6.10008V15.5335H4.95714V9.67691H7.28737ZM6.09934 12.569H7.08333C7.39531 12.5915 7.70476 12.4992 7.95347 12.3095C8.05517 12.2125 8.13435 12.0944 8.18544 11.9634C8.23654 11.8325 8.25829 11.692 8.24918 11.5517C8.24918 10.9066 7.87338 10.5838 7.12177 10.5833H6.09934V12.569Z" fill="white"/>
<defs>
<linearGradient id="paint0_linear_1127_10918" x1="11.5455" y1="2" x2="11.5455" y2="21.7143" gradientUnits="userSpaceOnUse">
<stop stop-color="#D56140" stop-opacity="0.6"/>
<stop offset="1" stop-color="#82321D"/>
</linearGradient>
</defs>
</symbol>


<symbol id="word" viewBox="0 0 24 24">
<path d="M14.25 6.75H5.75V11.75H14.25V6.75Z" fill="#2B7CD3"/>
<path d="M14.25 11.75H5.75V16.75H14.25V11.75Z" fill="#185ABD"/>
<path d="M22 6.75H14.25V11.75H22V6.75Z" fill="#2B7CD3"/>
<path d="M22 11.75H14.25V16.75H22V11.75Z" fill="#185ABD"/>
<path d="M22 16.75H5.75V20.5C5.75 21.0523 6.19772 21.5 6.75 21.5H21C21.5523 21.5 22 21.0523 22 20.5V16.75Z" fill="#103F91"/>
<path d="M14.25 6.75V2H6.75C6.19772 2 5.75 2.44772 5.75 3V6.75H14.25Z" fill="#41A5EE"/>
<path d="M22 6.75V3C22 2.44772 21.5523 2 21 2H14.25V6.75H22Z" fill="#41A5EE"/>
<path d="M5.75 5.75H11.75C12.3023 5.75 12.75 6.19772 12.75 6.75V17C12.75 17.5523 12.3023 18 11.75 18H5.75V5.75Z" fill="url(#paint0_linear_1130_10933)" fill-opacity="0.6"/>
<path d="M5.75 6.25H11.25C11.8023 6.25 12.25 6.69772 12.25 7.25V16.5C12.25 17.0523 11.8023 17.5 11.25 17.5H5.75V6.25Z" fill="#0E346D" fill-opacity="0.8"/>
<path d="M5.75 7.25H11.25C11.8023 7.25 12.25 7.69772 12.25 8.25V17.5C12.25 18.0523 11.8023 18.5 11.25 18.5H5.75V7.25Z" fill="#0B2E69" fill-opacity="0.6"/>
<path d="M1 7.25C1 6.69772 1.44772 6.25 2 6.25H10.75C11.3023 6.25 11.75 6.69772 11.75 7.25V16C11.75 16.5523 11.3023 17 10.75 17H2C1.44772 17 1 16.5523 1 16V7.25Z" fill="#2064C2"/>
<path d="M4.88594 13.0857C4.90139 13.2093 4.91214 13.3168 4.91684 13.4089H4.93566C4.94237 13.3215 4.95715 13.216 4.97933 13.0931C5.0015 12.9701 5.02098 12.866 5.03912 12.7807L5.88233 9.14783H6.97345L7.84689 12.7262C7.89776 12.9476 7.93412 13.172 7.95573 13.3981H7.97051C7.98656 13.178 8.01686 12.9592 8.06122 12.743L8.7593 9.14312H9.75165L8.52615 14.3488H7.36583L6.53472 10.9048C6.51053 10.8053 6.48321 10.6759 6.45275 10.5164C6.42229 10.357 6.40348 10.2405 6.39631 10.1671H6.3822C6.3728 10.2517 6.35398 10.3774 6.32576 10.544C6.29755 10.7113 6.27537 10.8342 6.25858 10.9149L5.47719 14.3508H4.29737L3.06516 9.14783H4.07297L4.83286 12.788C4.85554 12.8863 4.87325 12.9856 4.88594 13.0857Z" fill="white"/>
<defs>
<linearGradient id="paint0_linear_1130_10933" x1="11.5" y1="2" x2="11.5" y2="21.5" gradientUnits="userSpaceOnUse">
<stop stop-color="#5292C0"/>
<stop offset="1" stop-color="#113772"/>
</linearGradient>
</defs>
</symbol>

<symbol id="save" viewBox="0 0 24 24">
<path d="M5 21H19C19.5304 21 20.0391 20.7893 20.4142 20.4142C20.7893 20.0391 21 19.5304 21 19V8C21.0008 7.86839 20.9755 7.73793 20.9258 7.61609C20.876 7.49426 20.8027 7.38344 20.71 7.29L16.71 3.29C16.6166 3.19732 16.5057 3.12399 16.3839 3.07423C16.2621 3.02446 16.1316 2.99924 16 3H5C4.46957 3 3.96086 3.21071 3.58579 3.58579C3.21071 3.96086 3 4.46957 3 5V19C3 19.5304 3.21071 20.0391 3.58579 20.4142C3.96086 20.7893 4.46957 21 5 21ZM15 19H9V14H15V19ZM13 7H11V5H13V7ZM5 5H7V9H15V5H15.59L19 8.41V19H17V14C17 13.4696 16.7893 12.9609 16.4142 12.5858C16.0391 12.2107 15.5304 12 15 12H9C8.46957 12 7.96086 12.2107 7.58579 12.5858C7.21071 12.9609 7 13.4696 7 14V19H5V5Z"/>
</symbol>

<symbol id="cancel" viewBox="0 0 24 24">
<path d="M12.001 12L17.244 17.243M6.758 17.243L12.001 12L6.758 17.243ZM17.244 6.75702L12 12L17.244 6.75702ZM12 12L6.758 6.75702L12 12Z" stroke-linecap="round" stroke-linejoin="round"/>
</symbol>

<symbol id="savelink" viewBox="0 0 24 24">
<path fill-rule="evenodd" clip-rule="evenodd" d="M13.9995 21H5C4.46957 21 3.96086 20.7893 3.58579 20.4142C3.21071 20.0391 3 19.5304 3 19V4.99999C3 4.46955 3.21071 3.96085 3.58579 3.58577C3.96086 3.2107 4.46957 2.99999 5 2.99999H16C16.1316 2.99923 16.2621 3.02445 16.3839 3.07421C16.5057 3.12398 16.6166 3.1973 16.71 3.28999L20.71 7.28999C20.8027 7.38343 20.876 7.49424 20.9258 7.61608C20.9755 7.73792 21.0008 7.86838 21 7.99999V13.9995C20.4844 13.3132 19.7963 12.7639 19 12.416V8.40999L15.59 4.99999H15V8.99999H7V4.99999H5V19H7V14C7 13.4696 7.21071 12.9608 7.58579 12.5858C7.96086 12.2107 8.46957 12 9 12H15C15.266 12 15.5265 12.053 15.7674 12.1531C14.6454 12.4375 13.6746 13.1013 12.9996 14H9V19H12.416C12.7639 19.7962 13.3132 20.4844 13.9995 21ZM11 6.99999H13V4.99999H11V6.99999Z"/>
<path fill-rule="evenodd" clip-rule="evenodd" d="M21 17C21 19.2091 19.2091 21 17 21C14.7909 21 13 19.2091 13 17C13 14.7909 14.7909 13 17 13C19.2091 13 21 14.7909 21 17ZM17.1785 16.8217C17.2771 16.9203 17.4369 16.9203 17.5354 16.8217C17.634 16.7232 17.634 16.5634 17.5354 16.4648C17.2974 16.2265 16.9803 16.095 16.6431 16.095C16.3058 16.095 15.9887 16.2265 15.7507 16.4648L15.215 17.0002C14.9788 17.2372 14.8462 17.5581 14.8462 17.8927C14.8462 18.2273 14.9788 18.5483 15.215 18.7852C15.3321 18.9025 15.4712 18.9955 15.6244 19.0588C15.7775 19.1221 15.9417 19.1546 16.1074 19.1543C16.2732 19.1546 16.4374 19.1222 16.5905 19.0589C16.7437 18.9955 16.8829 18.9025 17 18.7852C17.0986 18.6867 17.0986 18.5268 17 18.4283C16.9014 18.3297 16.7416 18.3297 16.6431 18.4283C16.5008 18.5699 16.3082 18.6494 16.1075 18.6494C15.9068 18.6494 15.7142 18.5699 15.572 18.4283C15.4302 18.2861 15.3506 18.0935 15.3506 17.8927C15.3506 17.6919 15.4302 17.4994 15.572 17.3572L16.1076 16.8217C16.3937 16.5357 16.8925 16.5357 17.1785 16.8217ZM17 15.5722C16.9014 15.4736 16.9014 15.3138 17 15.2152C17.2369 14.9789 17.5579 14.8462 17.8925 14.8462C18.2271 14.8462 18.5481 14.9789 18.785 15.2152C19.0212 15.4522 19.1539 15.7731 19.1539 16.1077C19.1539 16.4423 19.0212 16.7633 18.785 17.0002L18.2493 17.5356C18.0113 17.7739 17.6942 17.9055 17.357 17.9055C17.0197 17.9055 16.7026 17.7739 16.4646 17.5356C16.366 17.4371 16.366 17.2773 16.4646 17.1787C16.5632 17.0801 16.723 17.0801 16.8215 17.1787C17.1075 17.4647 17.6064 17.4647 17.8924 17.1787L18.4281 16.6433C18.5698 16.5011 18.6494 16.3085 18.6494 16.1077C18.6494 15.9069 18.5698 15.7144 18.4281 15.5722C18.2858 15.4306 18.0932 15.351 17.8925 15.351C17.6918 15.351 17.4992 15.4306 17.357 15.5722C17.2584 15.6707 17.0986 15.6707 17 15.5722Z"/>
</symbol>


</svg>


